<mxfile host="app.diagrams.net" modified="2021-06-20T13:46:04.361Z" agent="5.0 (X11; Linux x86_64) AppleWebKit/537.36 (KHTML, like Gecko) Chrome/90.0.4430.85 Safari/537.36" etag="RF3fdq5NDwYGhokoxB_g" version="14.8.0" type="github">
  <diagram id="unIbPSAhKOMVo7faEsrS" name="Page-1">
    <mxGraphModel dx="2249" dy="1810" grid="1" gridSize="10" guides="1" tooltips="1" connect="1" arrows="1" fold="1" page="1" pageScale="1" pageWidth="827" pageHeight="1169" math="0" shadow="0">
      <root>
        <mxCell id="0" />
        <mxCell id="1" parent="0" />
        <mxCell id="GGfqpubAa2yeaHtBsJTJ-3" value="&lt;meta charset=&quot;utf-8&quot;&gt;&lt;div class=&quot;card-sender-name &quot; style=&quot;font-size: 13px; margin-bottom: 6px; font-family: &amp;quot;segoe ui&amp;quot;, segoeuipc, &amp;quot;san francisco&amp;quot;, &amp;quot;helvetica neue&amp;quot;, helvetica, &amp;quot;lucida grande&amp;quot;, roboto, ubuntu, tahoma, &amp;quot;microsoft sans serif&amp;quot;, arial, sans-serif; font-style: normal; font-weight: 400; letter-spacing: normal; text-indent: 0px; text-transform: none; word-spacing: 0px;&quot;&gt;&lt;span style=&quot;padding: 2px 10px 0px 2px ; cursor: pointer&quot;&gt;TML Tú&lt;/span&gt;&lt;/div&gt;&lt;div style=&quot;color: rgb(0, 26, 51); font-family: &amp;quot;segoe ui&amp;quot;, segoeuipc, &amp;quot;san francisco&amp;quot;, &amp;quot;helvetica neue&amp;quot;, helvetica, &amp;quot;lucida grande&amp;quot;, roboto, ubuntu, tahoma, &amp;quot;microsoft sans serif&amp;quot;, arial, sans-serif; font-size: 15px; font-style: normal; font-weight: 400; letter-spacing: normal; text-indent: 0px; text-transform: none; word-spacing: 0px;&quot;&gt;&lt;span id=&quot;mtc-2564192065782&quot;&gt;&lt;span class=&quot;text&quot; style=&quot;&quot;&gt;Flowchart :&#xa;- input ID&#xa;- input grade &#xa;- show ID + grade &#xa;- find max grade &#xa;- find min grade  &#xa;p: vẽ và giải thích cơ bản&lt;/span&gt;&lt;/span&gt;&lt;/div&gt;" style="text;whiteSpace=wrap;html=1;" vertex="1" parent="1">
          <mxGeometry x="-150" y="-600" width="190" height="130" as="geometry" />
        </mxCell>
        <mxCell id="GGfqpubAa2yeaHtBsJTJ-6" style="edgeStyle=orthogonalEdgeStyle;rounded=0;orthogonalLoop=1;jettySize=auto;html=1;exitX=0.5;exitY=1;exitDx=0;exitDy=0;" edge="1" parent="1" source="GGfqpubAa2yeaHtBsJTJ-5" target="GGfqpubAa2yeaHtBsJTJ-7">
          <mxGeometry relative="1" as="geometry">
            <mxPoint x="290" y="-470" as="targetPoint" />
          </mxGeometry>
        </mxCell>
        <mxCell id="GGfqpubAa2yeaHtBsJTJ-5" value="start" style="rounded=1;whiteSpace=wrap;html=1;" vertex="1" parent="1">
          <mxGeometry x="245" y="-670" width="120" height="40" as="geometry" />
        </mxCell>
        <mxCell id="GGfqpubAa2yeaHtBsJTJ-15" style="edgeStyle=orthogonalEdgeStyle;rounded=0;orthogonalLoop=1;jettySize=auto;html=1;entryX=0.579;entryY=-0.05;entryDx=0;entryDy=0;entryPerimeter=0;" edge="1" parent="1" source="GGfqpubAa2yeaHtBsJTJ-7" target="GGfqpubAa2yeaHtBsJTJ-8">
          <mxGeometry relative="1" as="geometry">
            <mxPoint x="300" y="-350" as="targetPoint" />
          </mxGeometry>
        </mxCell>
        <mxCell id="GGfqpubAa2yeaHtBsJTJ-39" style="edgeStyle=orthogonalEdgeStyle;rounded=0;orthogonalLoop=1;jettySize=auto;html=1;" edge="1" parent="1" source="GGfqpubAa2yeaHtBsJTJ-7" target="GGfqpubAa2yeaHtBsJTJ-40">
          <mxGeometry relative="1" as="geometry">
            <mxPoint x="560" y="-420" as="targetPoint" />
          </mxGeometry>
        </mxCell>
        <mxCell id="GGfqpubAa2yeaHtBsJTJ-7" value="Input Id,Grade" style="shape=parallelogram;perimeter=parallelogramPerimeter;whiteSpace=wrap;html=1;fixedSize=1;" vertex="1" parent="1">
          <mxGeometry x="210" y="-600" width="190" height="80" as="geometry" />
        </mxCell>
        <mxCell id="GGfqpubAa2yeaHtBsJTJ-32" style="edgeStyle=orthogonalEdgeStyle;rounded=0;orthogonalLoop=1;jettySize=auto;html=1;" edge="1" parent="1" source="GGfqpubAa2yeaHtBsJTJ-8">
          <mxGeometry relative="1" as="geometry">
            <mxPoint x="580" y="-200" as="targetPoint" />
          </mxGeometry>
        </mxCell>
        <mxCell id="GGfqpubAa2yeaHtBsJTJ-35" style="edgeStyle=orthogonalEdgeStyle;rounded=0;orthogonalLoop=1;jettySize=auto;html=1;entryX=0.5;entryY=0;entryDx=0;entryDy=0;" edge="1" parent="1" source="GGfqpubAa2yeaHtBsJTJ-8" target="GGfqpubAa2yeaHtBsJTJ-10">
          <mxGeometry relative="1" as="geometry">
            <mxPoint x="250" y="-250" as="targetPoint" />
            <Array as="points">
              <mxPoint x="290" y="-210" />
            </Array>
          </mxGeometry>
        </mxCell>
        <mxCell id="GGfqpubAa2yeaHtBsJTJ-8" value="Grade == Grade[0]" style="shape=parallelogram;perimeter=parallelogramPerimeter;whiteSpace=wrap;html=1;fixedSize=1;" vertex="1" parent="1">
          <mxGeometry x="220" y="-340" width="140" height="60" as="geometry" />
        </mxCell>
        <mxCell id="GGfqpubAa2yeaHtBsJTJ-13" style="edgeStyle=orthogonalEdgeStyle;rounded=0;orthogonalLoop=1;jettySize=auto;html=1;" edge="1" parent="1" source="GGfqpubAa2yeaHtBsJTJ-10" target="GGfqpubAa2yeaHtBsJTJ-17">
          <mxGeometry relative="1" as="geometry">
            <mxPoint x="190" y="-120" as="targetPoint" />
          </mxGeometry>
        </mxCell>
        <mxCell id="GGfqpubAa2yeaHtBsJTJ-36" style="edgeStyle=orthogonalEdgeStyle;rounded=0;orthogonalLoop=1;jettySize=auto;html=1;entryX=0.5;entryY=0;entryDx=0;entryDy=0;" edge="1" parent="1" source="GGfqpubAa2yeaHtBsJTJ-10" target="GGfqpubAa2yeaHtBsJTJ-18">
          <mxGeometry relative="1" as="geometry" />
        </mxCell>
        <mxCell id="GGfqpubAa2yeaHtBsJTJ-10" value="Is&lt;br&gt;G(A) &amp;gt; G(A+1)" style="rhombus;whiteSpace=wrap;html=1;" vertex="1" parent="1">
          <mxGeometry x="230" y="-210" width="140" height="80" as="geometry" />
        </mxCell>
        <mxCell id="GGfqpubAa2yeaHtBsJTJ-26" style="edgeStyle=orthogonalEdgeStyle;rounded=0;orthogonalLoop=1;jettySize=auto;html=1;" edge="1" parent="1" source="GGfqpubAa2yeaHtBsJTJ-17">
          <mxGeometry relative="1" as="geometry">
            <mxPoint x="280" y="29" as="targetPoint" />
          </mxGeometry>
        </mxCell>
        <mxCell id="GGfqpubAa2yeaHtBsJTJ-17" value="Max &amp;lt;-- G(A)" style="rounded=0;whiteSpace=wrap;html=1;" vertex="1" parent="1">
          <mxGeometry x="100" y="-70" width="120" height="60" as="geometry" />
        </mxCell>
        <mxCell id="GGfqpubAa2yeaHtBsJTJ-25" style="edgeStyle=orthogonalEdgeStyle;rounded=0;orthogonalLoop=1;jettySize=auto;html=1;" edge="1" parent="1" source="GGfqpubAa2yeaHtBsJTJ-18" target="GGfqpubAa2yeaHtBsJTJ-29">
          <mxGeometry relative="1" as="geometry">
            <mxPoint x="280" y="10" as="targetPoint" />
            <Array as="points">
              <mxPoint x="280" y="-40" />
            </Array>
          </mxGeometry>
        </mxCell>
        <mxCell id="GGfqpubAa2yeaHtBsJTJ-18" value="Min &amp;lt;--- G(A+1)" style="rounded=0;whiteSpace=wrap;html=1;" vertex="1" parent="1">
          <mxGeometry x="380" y="-60" width="140" height="60" as="geometry" />
        </mxCell>
        <mxCell id="GGfqpubAa2yeaHtBsJTJ-22" value="N" style="text;html=1;align=center;verticalAlign=middle;resizable=0;points=[];autosize=1;strokeColor=none;" vertex="1" parent="1">
          <mxGeometry x="360" y="-190" width="20" height="20" as="geometry" />
        </mxCell>
        <mxCell id="GGfqpubAa2yeaHtBsJTJ-23" value="Y" style="text;html=1;align=center;verticalAlign=middle;resizable=0;points=[];autosize=1;strokeColor=none;" vertex="1" parent="1">
          <mxGeometry x="180" y="-190" width="20" height="20" as="geometry" />
        </mxCell>
        <mxCell id="GGfqpubAa2yeaHtBsJTJ-51" style="edgeStyle=none;rounded=0;sketch=0;orthogonalLoop=1;jettySize=auto;html=1;" edge="1" parent="1">
          <mxGeometry relative="1" as="geometry">
            <mxPoint x="290" y="-230" as="targetPoint" />
            <mxPoint x="280" as="sourcePoint" />
            <Array as="points">
              <mxPoint x="20" />
              <mxPoint x="20" y="-230" />
            </Array>
          </mxGeometry>
        </mxCell>
        <mxCell id="GGfqpubAa2yeaHtBsJTJ-29" value="Stop" style="rounded=1;whiteSpace=wrap;html=1;" vertex="1" parent="1">
          <mxGeometry x="230" y="30" width="120" height="60" as="geometry" />
        </mxCell>
        <mxCell id="GGfqpubAa2yeaHtBsJTJ-45" style="edgeStyle=none;rounded=0;sketch=0;orthogonalLoop=1;jettySize=auto;html=1;exitX=1;exitY=0.5;exitDx=0;exitDy=0;" edge="1" parent="1" source="GGfqpubAa2yeaHtBsJTJ-34">
          <mxGeometry relative="1" as="geometry">
            <mxPoint x="680" y="-155" as="targetPoint" />
          </mxGeometry>
        </mxCell>
        <mxCell id="GGfqpubAa2yeaHtBsJTJ-34" value="Print&lt;br&gt;stu first" style="rhombus;whiteSpace=wrap;html=1;" vertex="1" parent="1">
          <mxGeometry x="540" y="-200" width="80" height="90" as="geometry" />
        </mxCell>
        <mxCell id="GGfqpubAa2yeaHtBsJTJ-37" value="Y" style="text;html=1;align=center;verticalAlign=middle;resizable=0;points=[];autosize=1;strokeColor=none;" vertex="1" parent="1">
          <mxGeometry x="430" y="-340" width="20" height="20" as="geometry" />
        </mxCell>
        <mxCell id="GGfqpubAa2yeaHtBsJTJ-38" value="N" style="text;html=1;align=center;verticalAlign=middle;resizable=0;points=[];autosize=1;strokeColor=none;" vertex="1" parent="1">
          <mxGeometry x="300" y="-250" width="20" height="20" as="geometry" />
        </mxCell>
        <mxCell id="GGfqpubAa2yeaHtBsJTJ-40" value="Print ID, Grade" style="rounded=1;whiteSpace=wrap;html=1;" vertex="1" parent="1">
          <mxGeometry x="530" y="-590" width="120" height="60" as="geometry" />
        </mxCell>
        <mxCell id="GGfqpubAa2yeaHtBsJTJ-47" value="Stop" style="rounded=1;whiteSpace=wrap;html=1;" vertex="1" parent="1">
          <mxGeometry x="680" y="-190" width="120" height="60" as="geometry" />
        </mxCell>
      </root>
    </mxGraphModel>
  </diagram>
</mxfile>
